<svg xmlns="http://www.w3.org/2000/svg" xmlns:xlink="http://www.w3.org/1999/xlink" width="12.646" height="34.021" viewBox="0.172 0.000 12.646 34.021"><defs><style>.a{fill:rgba(0,0,0,0);}.b{fill:#fff;}.c{clip-path:url(#a);}.d{fill:#fff;}</style><clipPath id="a"><path class="a" d="M-4952.577-848.046a10.933,10.933,0,0,0-10.8-10.931h-2.187v2.229h2.077l.143,0a4.954,4.954,0,0,1,4.8,4.951,4.953,4.953,0,0,1-4.943,4.953h-2.077v2.229h2.077a8.651,8.651,0,0,1,6.221,2.635,8.651,8.651,0,0,1-6.221,2.635h-2.077v2.229h2.077a4.953,4.953,0,0,1,4.943,4.953,4.954,4.954,0,0,1-4.8,4.951l-.143,0h-2.077v2.229h2.187a10.933,10.933,0,0,0,10.8-10.931,10.887,10.887,0,0,0-1.839-6.068A10.886,10.886,0,0,0-4952.577-848.046Zm-6.691,2.053a7.183,7.183,0,0,0,2.949-5.8,7.255,7.255,0,0,0-.124-1.336,8.667,8.667,0,0,1,1.641,5.086,8.661,8.661,0,0,1-1.118,4.267A10.925,10.925,0,0,0-4959.268-845.992Zm2.825,15.167a7.256,7.256,0,0,0,.124-1.336,7.182,7.182,0,0,0-2.949-5.8,10.923,10.923,0,0,0,3.348-2.214,8.664,8.664,0,0,1,1.118,4.267A8.667,8.667,0,0,1-4956.443-830.825Z" transform="translate(4965.564 858.978)"/></clipPath><linearGradient id="b" x1="-0.338" y1="0.895" x2="1.338" y2="0.105" gradientUnits="objectBoundingBox"><stop offset="0" stop-color="#c30"/><stop offset="1" stop-color="#f60"/></linearGradient></defs><g transform="translate(4965.564 858.979)"><g transform="translate(-4965.564 -858.978)"><g class="c" transform="translate(0 0)"><rect class="d" width="13.746" height="34.366" transform="translate(0 0)"/></g></g></g></svg>