<svg enable-background="new 0 0 423 230" height="72.862" viewBox="2.000 1.725 144.637 72.862" width="144.637" xmlns="http://www.w3.org/2000/svg"><g transform="matrix(.45556918 0 0 .45556918 -16.696448 -32.865809)"><path d="m212.26641 215.93619c.39216-2.28752 1.81242-7.378.62973-8.50565-4.51322-8.20589-6.94918-16.21258-8.49884-24.48325-1.82105-9.71877-8.50586-19.95619-10.5795-30.05852-2.55779 9.34683 6.87105 21.85205 4.41318 31.4649-2.2506 8.80195-2.06454 17.19644.97192 25.84757 2.23296 6.36207 4.09183 9.62502 5.14891 16.30268.9322 5.88924-1.685 6.49539 3.82901 8.81665 2.41228-7.91002 3.72065-11.44126 4.08541-19.38438z" fill="#ffffff"/><path d="m191.61804 143.81652c.33142.007.66283.0148.99418.0221.1967 2.58393.39352 5.16785 1.09262 8.6309 2.14614 10.63114 8.48864 21.25037 10.30958 30.96914 1.54977 8.27067 1.02185 17.19931 7.99968 23.85613 1.18215 1.12766.52411 4.59741.13238 6.88493-1.21486 7.08611-2.71145 14.12387-4.09883 21.18042h13.47938c-.35646-8.09972-.84975-16.17498 2.83205-21.84914 2.85015-4.39246 4.29939-8.6278 4.18087-12.71889-.2451-8.46027 4.35099-12.18202 8.95261-20.00033 2.10341 7.94691 3.97525 15.06464 5.87335 22.1753 1.5194 5.69149 2.94024 11.41409 4.65099 17.0481 1.27874 4.21135 1.86551 10.66463 4.67361 11.95438 5.74478 2.63865 12.77678 2.47477 19.34001 2.95266-11.13201-8.10429-11.67894-12.03197-7.44139-22.71429 1.95399-5.42781 1.47062-6.75883.8072-13.76022 1.51885-6.29359 12.12196-27.08888 20.65543-32.44619-9.44785 16.66306-9.4123 27.76779 1.3552 43.7442.94671.18002 2.73075-3.75946 3.68189-3.57829 1.04159.1984 1.71063 5.98962 2.75928 6.18891 1.78497.33923 3.95717-4.91286 5.77005-4.57301 1.41454.26518-.26396 7.94589 1.17241 8.21011 1.85815.3418 6.83956-6.7334 8.74262-6.3955 1.38753.24633-4.65848 11.96791-3.24296 12.211 2.0697.39151 9.93079-9.57928 11.45436-10.89089 3.87524-2.88532 6.36733-6.19129 9.02992-10.00799 8.03471-12.63959 17.46945-25.62294 25.76084-36.81788 8.23965-11.1516 7.36313-18.93377-2.55752-28.75277-4.00183-3.96083-7.52718-8.4031-11.43403-12.81219 1.76248-1.62138 3.03646-2.79331 4.41568-4.0621-.57285-.64914-.89646-1.3109-1.41825-1.56476-27.52858-13.39022-55.00719-26.887419-82.71057-39.906549-3.08012-1.44751-7.9888-1.35747-11.13963.0526-45.33523 20.28923-95.01259 25.603989-141.7127 40.979869-6.471856 2.13085-8.180936 3.69003-10.714136 8.5403.40219 1.67328 1.27179 2.56658 1.69255 3.38951.17228 7.82164.27466 15.63773.40237 24.28304-.0449.82368-.0135.62497-.0135.62497s27.817686.90898 40.855966 1.04607c0 0 .22141.0424.22781-.26002.66387-1.58707 1.40897-2.52546 2.41176-3.96257 2.17165-2.83908 4.07989-5.92559 6.25155-8.76465.40157.21946.80308.43891 1.20465.65837-.37249 2.70725-.84256 5.18196-1.30482 8.98235 10.59775 8.17841 25.55626 16.53559 38.64428 17.1966" fill="#ffffff"/><g fill="#ffffff"><path d="m185.74983 169.54066c-13.04326-1.18855-28.20878-9.29213-38.70851-16.9323-2.5985 7.1088-4.66956 12.79122-6.77069 19.23203-.53407 1.63734-.0148 5.15342.88627 5.49008 10.94429 4.09001 25.91846 8.86216 37.70696 12.87797 2.412-7.22417 4.71044-13.75952 6.88597-20.66778z"/><path d="m98.301084 202.63703c-.0326-4.85026-.79829-9.46219-.91689-13.97329-.18576-7.06775-.0805-16.15818-.338-23.7514-5.20547 12.29864-11.963 26.79142-14.52024 40.0759-1.65891 8.61837 2.73125 18.42865 4.64318 27.65685.15981.77142 2.29574 1.83733 3.14124 1.57343.92501-.28872 2.03823-1.99129 1.99236-3.03015-.21883-4.96468-.34427-10.01057-1.36925-14.8438-1.40381-6.61819.59396-10.98484 7.3676-13.70754zm40.109266-46.71358c-12.91592-.59699-27.22698-1.42883-41.073256-1.11897-.16257 2.81329-.31094 4.63941-.53316 6.16494.0178 1.44976.0344 2.89954.26028 5.41434.23113 8.13708.13379 15.21223.31998 22.27998.11873 4.5111.51347 9.46658.86284 13.97162 12.559116-5.57439 23.263596-13.59726 29.061316-26.80879 2.90328-6.61572 7.39035-13.12853 11.102-19.90312z" stroke-width="1.36488"/><path d="m135.01259 200.87278c2.90679-2.42938 5.81358-4.85874 9.50352-7.9426-4.0058-2.47811-7.19402-4.45048-10.51504-6.50497-5.91989 6.30164-11.63165 12.26659-17.15286 18.40306-.70021.77808-.73268 2.51632-.51077 3.70439 1.19991 6.42246 2.30465 12.88732 4.04632 19.17012.58542 2.11191 2.94651 3.73164 4.49592 5.57638.79355-2.12991 2.17307-4.24017 2.24525-6.39424.11191-3.36094-.34026-6.82874-1.13-10.1126-1.396-5.80434-.20936-10.29623 5.94793-13.61543 1.48552-.54953 1.97563-1.627 3.06973-2.28411z"/></g><path d="m97.072024 130.00852c-.30123-1.26354.668944-5.14392.06262-6.39087-6.77868 7.71635-7.142952 9.73871-13.469332 17.347-2.45473 2.95217-5.41994 6.12946-8.30109 9.72029.0191 2.46188.5136 4.37686.97359 6.21237 9.07238-11.4205 11.542108-15.02766 20.734208-26.88879z" fill="#ffffff"/><path d="m73.099916 147.08399c-6.85701-8.61909-17.35355-8.30456-26.3765 1.35949.36499 1.87866.94942 3.36785 1.20139 3.34639 7.54013-.64236 15.0743-1.40067 22.57514-2.3981.89888-.11956 1.80574-1.40064 2.59997-2.30778z" fill="#ffffff"/><path d="m73.236906 147.03122c-1.13431.65342-1.83808 2.24103-2.73696 2.36055-7.50084.99743-15.03501 1.75574-22.57514 2.3981-.25197.0215-.67401-1.95428-1.21436-3.40779-4.41703 3.91601-5.87445 8.91241-4.49561 15.05047 7.33827-3.83878 14.03793-7.42526 20.81495-10.85891 4.28945-2.17326 8.25332-3.13668 9.68455 3.42513.14246.65313 2.24482.87883 3.78193.95974-.11603-2.17867-.57558-4.01418-1.05997-6.33194-.6359-1.43537-1.24751-2.38851-2.19939-3.59535z" fill="#ffffff"/><path d="m271.49736 122.7219c-1.29362-4.18978 5.7511-12.20519 14.88639-19.4355-11.75744-6.327707-18.77341-8.737067-31.61795-14.660911-17.54791 7.244769-22.06395 15.629691-30.11485 30.725951 18.41365-6.21974 32.76607-3.67993 46.84641 3.37046z" fill="#ffffff"/><path d="m250.59871 229.70377c-1.73956-4.33377-8.70538-32.71819-13.10892-48.90727 10.30501-7.0648 38.05799-15.5388 64.12906-42.93375-3.89695 16.06035-16.40046 43.70628-10.63867 64.4583 1.02101 3.67729-.22732 4.74455-3.06191 7.98052-5.254-7.89091-16.13763-21.94249-2.31644-43.54553 0 0-7.55665 7.24256-14.70022 14.58803-5.29727 5.44699-12.76278 5.06829-15.30499 10.35207-5.93544 12.33636-.85967 41.06091-.85967 41.06091-2.12282-.43228-3.63878-1.59736-4.13824-3.05328z" fill="#ffffff"/><path d="m296.75969 126.83614c-1.18756 11.91544 8.22923 25.78036 18.45716 27.51431 4.39659.74543 14.42783.92362 15.90364-4.37245 1.44294-5.17802-2.66106-11.58163-11.09706-11.70047-15.07-3.20765-10.79453-29.5112-10.79453-29.5112s-6.5057-.77276-12.46921 18.06981z" fill="#ffffff"/></g></svg>